HIERARCHY
ROOT Hips
{
  OFFSET -0.00611153 96.2679 63.7508
  CHANNELS 6 Xposition Yposition Zposition Zrotation Xrotation Yrotation
  JOINT Chest
  {
    OFFSET 0 10.5691 -1.07959
    CHANNELS 6 Xposition Yposition Zposition Zrotation Xrotation Yrotation
    JOINT Chest2
    {
      OFFSET 0 11.6675 1.08235
      CHANNELS 6 Xposition Yposition Zposition Zrotation Xrotation Yrotation
      JOINT Chest3
      {
        OFFSET 0 10.5876 0
        CHANNELS 6 Xposition Yposition Zposition Zrotation Xrotation Yrotation
        JOINT Chest4
        {
          OFFSET 0 10.5876 0
          CHANNELS 6 Xposition Yposition Zposition Zrotation Xrotation Yrotation
          JOINT Neck
          {
            OFFSET 0 14.88 -9.18029e-005
            CHANNELS 6 Xposition Yposition Zposition Zrotation Xrotation Yrotation
            JOINT Head
            {
              OFFSET 0 9.61471 2.16553
              CHANNELS 6 Xposition Yposition Zposition Zrotation Xrotation Yrotation
              End Site
              {
                OFFSET 0 0 0
              }
            }
          }
          JOINT RightCollar
          {
            OFFSET -3.23953 8.30385 0
            CHANNELS 6 Xposition Yposition Zposition Zrotation Xrotation Yrotation
            JOINT RightShoulder
            {
              OFFSET -15.1725 0 0
              CHANNELS 6 Xposition Yposition Zposition Zrotation Xrotation Yrotation
              JOINT RightElbow
              {
                OFFSET -32.4113 0 0
                CHANNELS 6 Xposition Yposition Zposition Zrotation Xrotation Yrotation
                JOINT RightWrist
                {
                  OFFSET -26.4919 0 1.0813
                  CHANNELS 6 Xposition Yposition Zposition Zrotation Xrotation Yrotation
                  End Site
                  {
                    OFFSET 0 0 0
                  }
                }
              }
            }
          }
          JOINT LeftCollar
          {
            OFFSET 3.23953 8.30385 0
            CHANNELS 6 Xposition Yposition Zposition Zrotation Xrotation Yrotation
            JOINT LeftShoulder
            {
              OFFSET 15.1725 0 0
              CHANNELS 6 Xposition Yposition Zposition Zrotation Xrotation Yrotation
              JOINT LeftElbow
              {
                OFFSET 32.4113 0 0
                CHANNELS 6 Xposition Yposition Zposition Zrotation Xrotation Yrotation
                JOINT LeftWrist
                {
                  OFFSET 26.4919 0 1.08131
                  CHANNELS 6 Xposition Yposition Zposition Zrotation Xrotation Yrotation
                  End Site
                  {
                    OFFSET 0 0 0
                  }
                }
              }
            }
          }
        }
      }
    }
  }
  JOINT RightHip
  {
    OFFSET -8.63673 0.00547028 0
    CHANNELS 6 Xposition Yposition Zposition Zrotation Xrotation Yrotation
    JOINT RightKnee
    {
      OFFSET 0 -44.4932 -2.13963
      CHANNELS 6 Xposition Yposition Zposition Zrotation Xrotation Yrotation
      JOINT RightAnkle
      {
        OFFSET 0 -43.4407 -3.54051
        CHANNELS 6 Xposition Yposition Zposition Zrotation Xrotation Yrotation
        JOINT RightToe
        {
          OFFSET 0 -8.39269 19.1252
          CHANNELS 6 Xposition Yposition Zposition Zrotation Xrotation Yrotation
          End Site
          {
            OFFSET 0 0 0
          }
        }
      }
    }
  }
  JOINT LeftHip
  {
    OFFSET 8.63673 0.00547028 0
    CHANNELS 6 Xposition Yposition Zposition Zrotation Xrotation Yrotation
    JOINT LeftKnee
    {
      OFFSET 0 -44.4932 -2.13962
      CHANNELS 6 Xposition Yposition Zposition Zrotation Xrotation Yrotation
      JOINT LeftAnkle
      {
        OFFSET 0 -43.4408 -3.54051
        CHANNELS 6 Xposition Yposition Zposition Zrotation Xrotation Yrotation
        JOINT LeftToe
        {
          OFFSET 0 -8.3927 19.1252
          CHANNELS 6 Xposition Yposition Zposition Zrotation Xrotation Yrotation
          End Site
          {
            OFFSET 0 0 0
          }
        }
      }
    }
  }
}
MOTION
Frames:	8
Frame Time:	0.0333333
-0.0154114 96.2794 63.7514 -0.00534362 -0.0106179 179.993 1.15186e-015 10.5691 -1.07959 0.00416205 -0.00382043 -0.0106164 1.5786e-015 11.6675 1.08235 0.00832528 -0.00764371 -0.0212316 1.29063e-015 10.5876 -7.10543e-015 0.00832526 -0.00764372 -0.0212316 1.29063e-015 10.5876 -7.10543e-015 0.00832527 -0.00764371 -0.0212316 3.75075e-006 14.8801 -9.18029e-005 0.920255 -0.226412 -0.274192 -5.32907e-015 9.61471 2.16553 -1.50079 0.411728 0.352824 -3.23953 8.30385 -7.10543e-015 1.01006e-018 0 1.2424e-017 -15.1725 -4.76837e-006 0 -7.10944 -31.8959 -6.21261 -32.4113 1.67708e-006 4.55109e-006 14.8972 -3.06885 0.0803406 -26.4919 7.20099e-007 1.0813 -18.5391 0.00458108 -1.75681 3.23953 8.30385 -7.10543e-015 1.01006e-018 0 1.2424e-017 15.1725 -4.76837e-006 -1.42109e-014 6.22615 -41.1251 3.29132 32.4113 -2.04229e-006 -6.01831e-006 -14.9254 -3.02659 2.33762 26.4919 3.88475e-006 1.08131 20.4229 -0.651237 -1.88446 -8.63673 0.00547028 7.10543e-015 -1.76753 -3.21565 -1.20596 -1.12948e-006 -44.4932 -2.13963 1.79197 2.5507 1.00592 -2.09253e-007 -43.4407 -3.54051 -0.276147 0.640938 -0.0481547 -1.13312e-007 -8.39269 19.1252 -0.129631 -0.0250383 0.510112 8.63673 0.00547028 -7.10543e-015 3.7703 -3.3094 1.51784 3.38332e-007 -44.4932 -2.13962 -4.16725 2.8088 -1.12076 2.71976e-007 -43.4408 -3.54051 0.186994 0.624141 -0.0899084 -8.95233e-007 -8.3927 19.1252 -0.062699 0.0531259 0.144186 
-0.0432944 96.3175 63.7406 -0.00906394 -0.0353788 179.971 1.14492e-015 10.5691 -1.07959 0.0133235 -0.014653 -0.0420107 1.56819e-015 11.6675 1.08235 0.0268692 -0.0292854 -0.0839997 1.27676e-015 10.5876 -7.10543e-015 0.0268692 -0.0292854 -0.0839997 1.30451e-015 10.5876 -1.42109e-014 0.0268692 -0.0292854 -0.0839996 3.75075e-006 14.8802 -9.18029e-005 3.44435 -0.633481 -1.01355 -3.55271e-015 9.61471 2.16553 -5.60332 1.19397 1.31817 -3.23953 8.30385 0 1.26182e-018 2.48481e-017 -9.93923e-017 -15.1725 -4.76837e-006 -7.10543e-015 -7.03658 -32.5967 -5.72005 -32.4113 1.67708e-006 4.55109e-006 14.623 -2.56089 -0.566631 -26.4919 7.20099e-007 1.0813 -18.4429 -0.0685378 -1.30777 3.23953 8.30385 0 1.26182e-018 2.48481e-017 -9.93923e-017 15.1725 -4.76837e-006 -7.10543e-015 6.40343 -41.2581 3.65061 32.4113 -2.04229e-006 -6.01831e-006 -14.8567 -3.0518 2.33767 26.4919 3.88475e-006 1.08131 20.3028 -0.637137 -1.82791 -8.63673 0.00547028 -7.10543e-015 -2.03545 -2.58415 -1.24068 -1.12948e-006 -44.4932 -2.13963 2.35008 1.06595 0.783366 -2.09253e-007 -43.4407 -3.54051 -0.912285 1.43281 -0.898748 -1.13312e-007 -8.39269 19.1252 -0.860236 -0.412943 3.13296 8.63673 0.00547028 0 3.71502 -3.21953 1.27346 3.38332e-007 -44.4932 -2.13962 -4.14294 2.58293 -0.72149 2.71976e-007 -43.4408 -3.54051 0.0237195 0.675248 -0.175512 -8.95233e-007 -8.3927 19.1252 -0.16678 0.0594347 0.523353 
-0.0494508 96.3281 63.7011 0.0337032 -0.0223488 179.973 1.1588e-015 10.5691 -1.07959 0.00391595 -0.0127173 -0.040463 1.56819e-015 11.6675 1.08235 0.00680221 -0.0255131 -0.080484 1.27676e-015 10.5876 -1.42109e-014 0.00680221 -0.0255131 -0.0804839 1.27676e-015 10.5876 -1.42109e-014 0.00680221 -0.0255131 -0.080484 3.75075e-006 14.8799 -9.18029e-005 2.95138 0.15684 -0.812991 -6.21725e-015 9.61471 2.16553 -4.60099 -0.135616 1.10562 -3.23953 8.30385 0 4.85314e-020 0 4.96962e-017 -15.1725 -4.76837e-006 0 -6.94152 -32.8764 -5.76843 -32.4113 1.67708e-006 4.55109e-006 14.4959 -2.39547 -0.677455 -26.4919 7.20099e-007 1.0813 -18.5367 -0.0907603 -1.17332 3.23953 8.30385 0 4.85314e-020 0 4.96962e-017 15.1725 -4.76837e-006 -1.42109e-014 6.54425 -41.576 3.61897 32.4113 -2.04229e-006 -6.01831e-006 -14.6962 -2.86109 2.33727 26.4919 3.88475e-006 1.08131 20.0634 -0.642155 -1.89933 -8.63673 0.00547028 -7.10543e-015 -2.00203 -2.56262 -1.17716 -1.12948e-006 -44.4932 -2.13963 2.32592 1.12929 0.814415 -2.09253e-007 -43.4407 -3.54051 -0.711941 1.24423 -0.542838 -1.13312e-007 -8.39269 19.1252 -0.509312 -0.368354 1.65939 8.63673 0.00547028 0 3.77442 -3.04611 1.61113 3.38332e-007 -44.4932 -2.13962 -4.137 2.37017 -1.19268 2.71976e-007 -43.4408 -3.54051 0.0325021 0.775628 -0.121716 -8.95233e-007 -8.3927 19.1252 0.0251095 -0.114928 0.103185 
-0.0717059 96.3318 63.6946 0.0513529 -0.0550003 179.974 1.14492e-015 10.5691 -1.07959 0.00481164 -0.0125946 -0.0395054 1.58207e-015 11.6675 1.08235 0.00529272 -0.0252358 -0.0844664 1.33227e-015 10.5876 -1.42109e-014 0.00529272 -0.0252358 -0.0844664 1.33227e-015 10.5876 -7.10543e-015 0.00529272 -0.0252358 -0.0844664 3.75075e-006 14.88 -9.18029e-005 3.45453 0.074184 -0.964707 -6.21725e-015 9.61471 2.16553 -5.37265 -0.116394 1.27476 -3.23953 8.30385 0 -4.53769e-018 1.86361e-017 1.49089e-016 -15.1725 -4.76837e-006 -7.10543e-015 -6.94968 -32.767 -5.83565 -32.4113 1.67708e-006 4.55109e-006 14.5314 -2.52778 -0.589913 -26.4919 7.20099e-007 1.0813 -18.554 -0.0729227 -1.28322 3.23953 8.30385 7.10543e-015 -4.53769e-018 1.86361e-017 1.49089e-016 15.1725 -4.76837e-006 -7.10543e-015 6.60622 -41.4468 3.67333 32.4113 -2.04229e-006 -6.01831e-006 -14.7531 -2.93142 2.33741 26.4919 3.88475e-006 1.08131 20.1448 -0.639783 -1.87114 -8.63673 0.00547028 0 -1.99901 -2.54024 -1.18289 -1.12948e-006 -44.4932 -2.13963 2.33387 1.03916 0.758365 -2.09253e-007 -43.4407 -3.54051 -0.791898 1.26586 -0.549572 -1.13312e-007 -8.39269 19.1252 -0.553528 -0.312083 1.93151 8.63673 0.00547028 -7.10543e-015 3.783 -3.08094 1.55765 3.38332e-007 -44.4932 -2.13962 -4.14541 2.38782 -1.0856 2.71976e-007 -43.4408 -3.54051 -0.0156946 0.75086 -0.151202 -8.95233e-007 -8.3927 19.1252 -0.0140454 -0.0694445 0.172346 
-0.085309 96.3401 63.6892 0.0591601 -0.0969275 179.976 1.15186e-015 10.5691 -1.07959 0.0091265 -0.012895 -0.0372754 1.58207e-015 11.6675 1.08235 0.0109708 -0.029533 -0.0944095 1.30451e-015 10.5876 -7.10543e-015 0.0109709 -0.0295329 -0.0944094 1.30451e-015 10.5876 -7.10543e-015 0.0109708 -0.0295329 -0.0944095 3.75075e-006 14.88 -9.18029e-005 3.349 0.031756 -0.99084 -3.55271e-015 9.61471 2.16553 -5.20757 -0.284977 1.17423 -3.23953 8.30385 0 -4.04024e-018 0 -9.93923e-017 -15.1725 -4.76837e-006 0 -6.98837 -32.8647 -5.81402 -32.4113 1.67708e-006 4.55109e-006 14.5038 -2.63584 -0.722857 -26.4919 7.20099e-007 1.0813 -18.62 -0.0617457 -1.35248 3.23953 8.30385 0 -4.04024e-018 0 -9.93923e-017 15.1725 -4.76837e-006 -1.42109e-014 6.65527 -41.4149 3.71638 32.4113 -2.04229e-006 -6.01831e-006 -14.7704 -2.87968 2.33731 26.4919 3.88475e-006 1.08131 20.1239 -0.644062 -1.89899 -8.63673 0.00547028 0 -1.99213 -2.57205 -1.13494 -1.12948e-006 -44.4932 -2.13963 2.31888 1.02197 0.639065 -2.09253e-007 -43.4407 -3.54051 -0.774389 1.2791 -0.576923 -1.13312e-007 -8.39269 19.1252 -0.576023 -0.177191 2.21603 8.63673 0.00547028 0 3.78243 -3.07135 1.54245 3.38332e-007 -44.4932 -2.13962 -4.16016 2.29329 -1.17373 2.71976e-007 -43.4408 -3.54051 0.0010479 0.831372 -0.0599708 -8.95233e-007 -8.3927 19.1252 -0.00196968 -0.137596 0.244917 
-0.0960773 96.3326 63.6883 0.0853689 -0.159245 179.974 1.13798e-015 10.5691 -1.07959 0.0139577 -0.01334 -0.034357 1.58207e-015 11.6675 1.08235 0.0219473 -0.0386311 -0.0747463 1.33227e-015 10.5876 0 0.0219474 -0.0386311 -0.0747462 1.30451e-015 10.5876 -7.10543e-015 0.0219474 -0.0386311 -0.0747463 3.75075e-006 14.88 -9.18029e-005 3.40166 -0.0405004 -1.00486 -4.44089e-015 9.61471 2.16553 -5.29463 -0.213098 1.19585 -3.23953 8.30385 7.10543e-015 7.03705e-019 -6.21202e-018 -0 -15.1725 -4.76837e-006 0 -7.0716 -32.7719 -5.96308 -32.4113 1.67708e-006 4.55109e-006 14.5475 -2.82202 -0.565268 -26.4919 7.20099e-007 1.0813 -18.789 -0.03699 -1.50609 3.23953 8.30385 7.10543e-015 7.03705e-019 -6.21202e-018 -0 15.1725 -4.76837e-006 -7.10543e-015 6.54895 -41.5473 3.53687 32.4113 -2.04229e-006 -6.01831e-006 -14.7176 -2.77851 2.3371 26.4919 3.88475e-006 1.08131 20.0863 -0.653683 -1.96059 -8.63673 0.00547028 0 -1.96461 -2.62711 -1.18205 -1.12948e-006 -44.4932 -2.13963 2.29983 1.02471 0.704327 -2.09253e-007 -43.4407 -3.54051 -0.688678 1.21758 -0.475723 -1.13312e-007 -8.39269 19.1252 -0.471796 -0.090389 1.88716 8.63673 0.00547028 -7.10543e-015 3.82277 -3.21058 1.66948 3.38332e-007 -44.4932 -2.13962 -4.1815 2.45037 -1.20299 2.71976e-007 -43.4408 -3.54051 -0.0784823 0.778094 -0.0816251 -8.95233e-007 -8.3927 19.1252 0.0882311 -0.238832 0.0790875 
-0.111283 96.3274 63.6893 0.102784 -0.184022 179.948 1.13798e-015 10.5691 -1.07959 0.0164003 -0.0136514 -0.0313342 1.59595e-015 11.6675 1.08235 0.0336393 -0.0408307 -0.0894457 1.27676e-015 10.5876 -1.42109e-014 0.0336393 -0.0408307 -0.0894458 1.30451e-015 10.5876 -1.42109e-014 0.0336393 -0.0408307 -0.0894457 3.75075e-006 14.88 -9.18029e-005 3.34093 0.0101104 -0.931013 -4.44089e-015 9.61471 2.16553 -5.29754 -0.232118 1.25138 -3.23953 8.30385 0 1.79566e-018 -6.21202e-018 -4.96962e-017 -15.1725 -4.76837e-006 0 -7.0706 -32.8802 -5.85193 -32.4113 1.67708e-006 4.55109e-006 14.5123 -2.63737 -0.67314 -26.4919 7.20099e-007 1.0813 -18.6987 -0.0617739 -1.3557 3.23953 8.30385 0 1.79566e-018 -6.21202e-018 -4.96962e-017 15.1725 -4.76837e-006 -7.10543e-015 6.57157 -41.5194 3.61779 32.4113 -2.04229e-006 -6.01831e-006 -14.7307 -2.71732 2.33698 26.4919 3.88475e-006 1.08131 20.0618 -0.661435 -2.00246 -8.63673 0.00547028 0 -1.96094 -2.69088 -1.10959 -1.12948e-006 -44.4932 -2.13963 2.32614 1.0815 0.722931 -2.09253e-007 -43.4407 -3.54051 -0.817004 1.26403 -0.619996 -1.13312e-007 -8.39269 19.1252 -0.569451 -0.217227 2.13258 8.63673 0.00547028 -7.10543e-015 3.84005 -3.22614 1.66715 3.38332e-007 -44.4932 -2.13962 -4.19481 2.44577 -1.17622 2.71976e-007 -43.4408 -3.54051 0.00090001 0.716097 -0.0620781 -8.95233e-007 -8.3927 19.1252 0.0351197 -0.0902763 0.0233167 
-0.139237 96.3308 63.6881 0.102062 -0.181274 179.915 1.16573e-015 10.5691 -1.07959 0.0163392 -0.0135506 -0.0287909 1.55431e-015 11.6675 1.08235 0.0340654 -0.0382806 -0.0826146 1.27676e-015 10.5876 -7.10543e-015 0.0340655 -0.0382806 -0.0826144 1.27676e-015 10.5876 -7.10543e-015 0.0340654 -0.0382806 -0.0826146 3.75075e-006 14.88 -9.18029e-005 3.45909 0.0925222 -0.96954 -5.32907e-015 9.61471 2.16553 -5.51204 -0.200993 1.29978 -3.23953 8.30385 0 -6.30908e-019 0 -4.96962e-017 -15.1725 -4.76837e-006 0 -7.05465 -32.9451 -5.80578 -32.4113 1.67708e-006 4.55109e-006 14.4911 -2.5853 -0.70032 -26.4919 7.20099e-007 1.0813 -18.6065 -0.0657192 -1.31773 3.23953 8.30385 -7.10543e-015 -6.30908e-019 0 -4.96962e-017 15.1725 -4.76837e-006 -1.42109e-014 6.582 -41.3929 3.59609 32.4113 -2.04229e-006 -6.01831e-006 -14.7971 -2.67908 2.33691 26.4919 3.88475e-006 1.08131 19.9229 -0.66409 -1.99316 -8.63673 0.00547028 -7.10543e-015 -1.97509 -2.6725 -1.10006 -1.12948e-006 -44.4932 -2.13963 2.32464 1.06071 0.735589 -2.09253e-007 -43.4407 -3.54051 -0.765661 1.2479 -0.58091 -1.13312e-007 -8.39269 19.1252 -0.488803 -0.117679 1.92258 8.63673 0.00547028 0 3.81877 -3.1425 1.61717 3.38332e-007 -44.4932 -2.13962 -4.18326 2.26487 -1.16518 2.71976e-007 -43.4408 -3.54051 0.090275 0.825278 0.0566924 -8.95233e-007 -8.3927 19.1252 0.174739 -0.231618 -0.261934 
